<?xml version="1.0" encoding="UTF-8" standalone="no"?>
<!-- Created with Inkscape (http://www.inkscape.org/) -->

<svg
   width="32mm"
   height="320mm"
   viewBox="0 0 32 320"
   version="1.1"
   id="svg1"
   inkscape:version="1.3.2 (091e20e, 2023-11-25)"
   sodipodi:docname="effect_icons.svg"
   xml:space="preserve"
   xmlns:inkscape="http://www.inkscape.org/namespaces/inkscape"
   xmlns:sodipodi="http://sodipodi.sourceforge.net/DTD/sodipodi-0.dtd"
   xmlns:xlink="http://www.w3.org/1999/xlink"
   xmlns="http://www.w3.org/2000/svg"
   xmlns:svg="http://www.w3.org/2000/svg"><sodipodi:namedview
     id="namedview1"
     pagecolor="#ffffff"
     bordercolor="#999999"
     borderopacity="1"
     inkscape:showpageshadow="0"
     inkscape:pageopacity="0"
     inkscape:pagecheckerboard="0"
     inkscape:deskcolor="#d1d1d1"
     inkscape:document-units="mm"
     inkscape:zoom="2.8685467"
     inkscape:cx="18.824864"
     inkscape:cy="1035.5418"
     inkscape:window-width="1920"
     inkscape:window-height="1011"
     inkscape:window-x="0"
     inkscape:window-y="32"
     inkscape:window-maximized="1"
     inkscape:current-layer="layer1"
     showgrid="false" /><defs
     id="defs1"><inkscape:path-effect
       effect="mirror_symmetry"
       start_point="14.426415,149.49331"
       end_point="14.426415,151.92509"
       center_point="14.426415,150.7092"
       id="path-effect379"
       is_visible="true"
       lpeversion="1.2"
       lpesatellites=""
       mode="free"
       discard_orig_path="false"
       fuse_paths="false"
       oposite_fuse="false"
       split_items="false"
       split_open="false"
       link_styles="false" /><linearGradient
       id="linearGradient376"
       inkscape:collect="always"><stop
         style="stop-color:#808080;stop-opacity:1;"
         offset="0"
         id="stop376" /><stop
         style="stop-color:#cd2727;stop-opacity:0;"
         offset="1"
         id="stop377" /></linearGradient><linearGradient
       id="linearGradient374"
       inkscape:collect="always"><stop
         style="stop-color:#5c5c5c;stop-opacity:1;"
         offset="0"
         id="stop374" /><stop
         style="stop-color:#bababa;stop-opacity:1;"
         offset="1"
         id="stop375" /></linearGradient><inkscape:path-effect
       effect="simplify"
       id="path-effect371"
       is_visible="true"
       lpeversion="1.3"
       threshold="6.6428358"
       steps="4.6319095"
       smooth_angles="360"
       helper_size="10"
       simplify_individual_paths="false"
       simplify_just_coalesce="false" /><inkscape:path-effect
       effect="perspective-envelope"
       up_left_point="15.6,265.61266"
       up_right_point="34.684032,265.61266"
       down_left_point="15.604576,284.69212"
       down_right_point="34.684032,284.69212"
       id="path-effect367"
       is_visible="true"
       lpeversion="1"
       deform_type="perspective"
       horizontal_mirror="false"
       vertical_mirror="false"
       overflow_perspective="false" /><inkscape:path-effect
       effect="mirror_symmetry"
       start_point="16.013915,166.35146"
       end_point="16.013915,185.64088"
       center_point="16.013915,175.99617"
       id="path-effect32"
       is_visible="true"
       lpeversion="1.2"
       lpesatellites=""
       mode="free"
       discard_orig_path="false"
       fuse_paths="false"
       oposite_fuse="false"
       split_items="false"
       split_open="false"
       link_styles="false" /><inkscape:path-effect
       effect="mirror_symmetry"
       start_point="16.013915,166.35146"
       end_point="16.013915,185.64088"
       center_point="16.013915,175.99617"
       id="path-effect19"
       is_visible="true"
       lpeversion="1.2"
       lpesatellites=""
       mode="free"
       discard_orig_path="false"
       fuse_paths="false"
       oposite_fuse="false"
       split_items="false"
       split_open="false"
       link_styles="false" /><inkscape:path-effect
       effect="mirror_symmetry"
       start_point="14.426415,149.49331"
       end_point="14.426415,151.92509"
       center_point="14.426415,150.7092"
       id="path-effect17"
       is_visible="true"
       lpeversion="1.2"
       lpesatellites=""
       mode="free"
       discard_orig_path="false"
       fuse_paths="false"
       oposite_fuse="false"
       split_items="false"
       split_open="false"
       link_styles="false" /><inkscape:path-effect
       effect="mirror_symmetry"
       start_point="16.013915,149.49312"
       end_point="16.013915,151.9249"
       center_point="16.013915,150.70901"
       id="path-effect15"
       is_visible="true"
       lpeversion="1.2"
       lpesatellites=""
       mode="free"
       discard_orig_path="false"
       fuse_paths="false"
       oposite_fuse="false"
       split_items="false"
       split_open="false"
       link_styles="false" /><inkscape:path-effect
       effect="mirror_symmetry"
       start_point="16.013915,149.49312"
       end_point="16.013915,151.9249"
       center_point="16.013915,150.70901"
       id="path-effect13"
       is_visible="true"
       lpeversion="1.2"
       lpesatellites=""
       mode="free"
       discard_orig_path="false"
       fuse_paths="false"
       oposite_fuse="false"
       split_items="false"
       split_open="false"
       link_styles="false" /><inkscape:path-effect
       effect="mirror_symmetry"
       start_point="17.3988,140.12783"
       end_point="17.3988,142.89723"
       center_point="17.3988,141.51253"
       id="path-effect12"
       is_visible="true"
       lpeversion="1.2"
       lpesatellites=""
       mode="free"
       discard_orig_path="false"
       fuse_paths="false"
       oposite_fuse="false"
       split_items="false"
       split_open="false"
       link_styles="false" /><inkscape:path-effect
       effect="tiling"
       id="path-effect3"
       is_visible="true"
       lpeversion="1"
       unit="px"
       seed="1;1"
       lpesatellites=""
       num_rows="10"
       num_cols="1"
       gapx="0"
       gapy="0"
       offset="0"
       offset_type="false"
       scale="0"
       rotate="0"
       mirrorrowsx="false"
       mirrorrowsy="false"
       mirrorcolsx="false"
       mirrorcolsy="false"
       mirrortrans="false"
       shrink_interp="false"
       split_items="false"
       link_styles="false"
       interpolate_scalex="false"
       interpolate_scaley="true"
       interpolate_rotatex="false"
       interpolate_rotatey="true"
       random_scale="false"
       random_rotate="false"
       random_gap_y="false"
       random_gap_x="false"
       transformorigin="" /><inkscape:path-effect
       effect="tiling"
       id="path-effect2"
       is_visible="true"
       lpeversion="1"
       unit="px"
       seed="1;1"
       lpesatellites=""
       num_rows="10"
       num_cols="1"
       gapx="0"
       gapy="0"
       offset="0"
       offset_type="false"
       scale="0"
       rotate="0"
       mirrorrowsx="false"
       mirrorrowsy="false"
       mirrorcolsx="false"
       mirrorcolsy="false"
       mirrortrans="false"
       shrink_interp="false"
       split_items="false"
       link_styles="false"
       interpolate_scalex="false"
       interpolate_scaley="true"
       interpolate_rotatex="false"
       interpolate_rotatey="true"
       random_scale="false"
       random_rotate="false"
       random_gap_y="false"
       random_gap_x="false"
       transformorigin="" /><linearGradient
       inkscape:collect="always"
       xlink:href="#linearGradient374"
       id="linearGradient375"
       x1="0.26708761"
       y1="17.416881"
       x2="8.1790604"
       y2="17.416881"
       gradientUnits="userSpaceOnUse" /><linearGradient
       inkscape:collect="always"
       xlink:href="#linearGradient376"
       id="linearGradient377"
       x1="15.877784"
       y1="11.734737"
       x2="12.754704"
       y2="19.584145"
       gradientUnits="userSpaceOnUse"
       gradientTransform="matrix(1.1077749,0,0,1.1077749,-0.47751992,-1.5990853)" /></defs><g
     inkscape:label="Layer 1"
     inkscape:groupmode="layer"
     id="layer1"><path
       id="path1"
       style="fill:#000000;fill-opacity:1;stroke:none;stroke-width:1;stroke-linecap:square;stroke-linejoin:round;stroke-dasharray:none;stroke-dashoffset:0;stroke-opacity:1;paint-order:fill markers stroke"
       inkscape:label="Border"
       d="M 15.189453,0.55078125 C 9.5063427,0.78442328 4.1597438,4.4623533 1.8842799,9.6692748 -0.55818453,14.962313 0.37353705,21.600172 4.2010081,26.000998 7.6873506,30.203826 13.507556,32.262107 18.86319,31.202464 24.594989,30.192359 29.494375,25.645377 30.9421,20.0104 32.422823,14.680828 30.748418,8.6330353 26.714263,4.8440276 23.679053,1.8950914 19.414162,0.31382269 15.189453,0.55078125 Z m 0,31.99999975 C 9.5063427,32.784423 4.1597438,36.462353 1.8842799,41.669275 -0.55818453,46.962313 0.37353705,53.600172 4.2010081,58.000998 7.6873506,62.203826 13.507556,64.262107 18.86319,63.202464 24.594989,62.192359 29.494375,57.645377 30.9421,52.0104 32.422823,46.680828 30.748418,40.633035 26.714263,36.844028 23.679053,33.895091 19.414162,32.313823 15.189453,32.550781 Z m 0,32 C 9.5063427,64.784423 4.1597438,68.462353 1.8842799,73.669275 -0.55818453,78.962313 0.37353705,85.600172 4.2010081,90.000998 7.6873506,94.203826 13.507556,96.262107 18.86319,95.202464 24.594989,94.192359 29.494375,89.645377 30.9421,84.0104 32.422823,78.680828 30.748418,72.633035 26.714263,68.844028 23.679053,65.895091 19.414162,64.313823 15.189453,64.550781 Z m 0,32 c -5.6831103,0.233642 -11.0297092,3.911569 -13.3051731,9.118489 -2.44246443,5.29304 -1.51074285,11.9309 2.3167282,16.33173 3.4863425,4.20283 9.3065479,6.26111 14.6621819,5.20146 5.731799,-1.0101 10.631185,-5.55708 12.07891,-11.19206 1.480723,-5.32957 -0.193682,-11.37736 -4.227837,-15.16637 -3.03521,-2.948939 -7.300101,-4.530207 -11.52481,-4.293249 z m 0,31.999999 c -5.6831103,0.23364 -11.0297092,3.91157 -13.3051731,9.11849 -2.44246443,5.29304 -1.51074285,11.9309 2.3167282,16.33173 3.4863425,4.20283 9.3065479,6.26111 14.6621819,5.20146 5.731799,-1.0101 10.631185,-5.55708 12.07891,-11.19206 1.480723,-5.32957 -0.193682,-11.37736 -4.227837,-15.16637 -3.03521,-2.94894 -7.300101,-4.53021 -11.52481,-4.29325 z m 0,32 c -5.6831103,0.23364 -11.0297092,3.91157 -13.3051731,9.11849 -2.44246443,5.29304 -1.51074285,11.9309 2.3167282,16.33173 3.4863425,4.20283 9.3065479,6.26111 14.6621819,5.20146 5.731799,-1.0101 10.631185,-5.55708 12.07891,-11.19206 1.480723,-5.32957 -0.193682,-11.37736 -4.227837,-15.16637 -3.03521,-2.94894 -7.300101,-4.53021 -11.52481,-4.29325 z m 0,32 c -5.6831103,0.23364 -11.0297092,3.91157 -13.3051731,9.11849 -2.44246443,5.29304 -1.51074285,11.9309 2.3167282,16.33173 3.4863425,4.20283 9.3065479,6.26111 14.6621819,5.20146 5.731799,-1.0101 10.631185,-5.55708 12.07891,-11.19206 1.480723,-5.32957 -0.193682,-11.37736 -4.227837,-15.16637 -3.03521,-2.94894 -7.300101,-4.53021 -11.52481,-4.29325 z m 0,32 c -5.6831103,0.23364 -11.0297092,3.91157 -13.3051731,9.11849 -2.44246443,5.29304 -1.51074285,11.9309 2.3167282,16.33173 3.4863425,4.20283 9.3065479,6.26111 14.6621819,5.20146 5.731799,-1.0101 10.631185,-5.55708 12.07891,-11.19206 1.480723,-5.32957 -0.193682,-11.37736 -4.227837,-15.16637 -3.03521,-2.94894 -7.300101,-4.53021 -11.52481,-4.29325 z m 0,32 c -5.6831103,0.23364 -11.0297092,3.91157 -13.3051731,9.11849 -2.44246443,5.29304 -1.51074285,11.9309 2.3167282,16.33173 3.4863425,4.20283 9.3065479,6.26111 14.6621819,5.20146 5.731799,-1.0101 10.631185,-5.55708 12.07891,-11.19206 1.480723,-5.32957 -0.193682,-11.37736 -4.227837,-15.16637 -3.03521,-2.94894 -7.300101,-4.53021 -11.52481,-4.29325 z m 0,32 c -5.6831103,0.23364 -11.0297092,3.91157 -13.3051731,9.11849 -2.44246443,5.29304 -1.51074285,11.9309 2.3167282,16.33173 3.4863425,4.20283 9.3065479,6.26111 14.6621819,5.20146 5.731799,-1.0101 10.631185,-5.55708 12.07891,-11.19206 1.480723,-5.32957 -0.193682,-11.37736 -4.227837,-15.16637 -3.03521,-2.94894 -7.300101,-4.53021 -11.52481,-4.29325 z" /><path
       style="fill:#ffffff;fill-opacity:1;stroke:none;stroke-width:1;stroke-linecap:square;stroke-linejoin:round;stroke-dasharray:none;stroke-dashoffset:0;stroke-opacity:1;paint-order:fill markers stroke"
       d="m 15.001953,289.0918 c -5.0650553,0.34337 -9.8657177,3.40581 -12.1904693,7.93737 -2.73773835,5.02318 -2.17086555,11.60294 1.3822221,16.0852 3.4657762,4.6175 9.7730482,6.82316 15.3610542,5.37165 5.426951,-1.2609 9.880175,-5.834 11.016781,-11.28503 0.843575,-3.57493 0.206751,-7.37302 -1.553963,-10.52912 -2.133904,-3.87785 -6.164239,-6.7099 -10.587746,-7.40466 -1.129899,-0.1984 -2.283774,-0.23915 -3.427879,-0.17541 z"
       id="path28"
       inkscape:label="Inner10" /><path
       style="fill:#55e165;fill-opacity:1;stroke:none;stroke-width:1;stroke-linecap:square;stroke-linejoin:round;stroke-dasharray:none;stroke-dashoffset:0;stroke-opacity:1;paint-order:fill markers stroke"
       d="m 15.001953,225.0918 c -5.0650553,0.34337 -9.8657177,3.40581 -12.1904693,7.93737 -2.73773835,5.02318 -2.17086555,11.60294 1.3822221,16.0852 3.4657762,4.6175 9.7730482,6.82316 15.3610542,5.37165 5.426951,-1.2609 9.880175,-5.834 11.016781,-11.28503 0.843575,-3.57493 0.206751,-7.37302 -1.553963,-10.52912 -2.133904,-3.87785 -6.164239,-6.7099 -10.587746,-7.40466 -1.129899,-0.1984 -2.283774,-0.23915 -3.427879,-0.17541 z"
       id="path26"
       inkscape:label="Inner8" /><path
       style="fill:#664859;fill-opacity:1;stroke:none;stroke-width:1;stroke-linecap:square;stroke-linejoin:round;stroke-dasharray:none;stroke-dashoffset:0;stroke-opacity:1;paint-order:fill markers stroke"
       d="m 15.001953,193.0918 c -5.0650553,0.34337 -9.8657177,3.40581 -12.1904693,7.93737 -2.73773835,5.02318 -2.17086555,11.60294 1.3822221,16.0852 3.4657762,4.6175 9.7730482,6.82316 15.3610542,5.37165 5.426951,-1.2609 9.880175,-5.834 11.016781,-11.28503 0.843575,-3.57493 0.206751,-7.37302 -1.553963,-10.52912 -2.133904,-3.87785 -6.164239,-6.7099 -10.587746,-7.40466 -1.129899,-0.1984 -2.283774,-0.23915 -3.427879,-0.17541 z"
       id="path25"
       inkscape:label="Inner7" /><path
       style="fill:#25b2ea;fill-opacity:1;stroke:none;stroke-width:1;stroke-linecap:square;stroke-linejoin:round;stroke-dasharray:none;stroke-dashoffset:0;stroke-opacity:1;paint-order:fill markers stroke"
       d="m 15.001953,161.0918 c -5.0650553,0.34337 -9.8657177,3.40581 -12.1904693,7.93737 -2.73773835,5.02318 -2.17086555,11.60294 1.3822221,16.0852 3.4657762,4.6175 9.7730482,6.82316 15.3610542,5.37165 5.426951,-1.2609 9.880175,-5.834 11.016781,-11.28503 0.843575,-3.57493 0.206751,-7.37302 -1.553963,-10.52912 -2.133904,-3.87785 -6.164239,-6.7099 -10.587746,-7.40466 -1.129899,-0.1984 -2.283774,-0.23915 -3.427879,-0.17541 z"
       id="path24"
       inkscape:label="Inner6" /><path
       style="fill:#a855dd;fill-opacity:1;stroke:none;stroke-width:1;stroke-linecap:square;stroke-linejoin:round;stroke-dasharray:none;stroke-dashoffset:0;stroke-opacity:1;paint-order:fill markers stroke"
       d="m 15.001953,129.0918 c -5.0650553,0.34337 -9.8657177,3.40581 -12.1904693,7.93737 -2.73773835,5.02318 -2.17086555,11.60294 1.3822221,16.0852 3.4657762,4.6175 9.7730482,6.82316 15.3610542,5.37165 5.426951,-1.2609 9.880175,-5.834 11.016781,-11.28503 0.843575,-3.57493 0.206751,-7.37302 -1.553963,-10.52912 -2.133904,-3.87785 -6.164239,-6.7099 -10.587746,-7.40466 -1.129899,-0.1984 -2.283774,-0.23915 -3.427879,-0.17541 z"
       id="path23"
       inkscape:label="Inner5" /><path
       style="fill:#a54f4f;fill-opacity:1;stroke:none;stroke-width:1;stroke-linecap:square;stroke-linejoin:round;stroke-dasharray:none;stroke-dashoffset:0;stroke-opacity:1;paint-order:fill markers stroke"
       d="m 15.001953,97.091797 c -5.0650553,0.34337 -9.8657177,3.405813 -12.1904693,7.937373 -2.73773835,5.02318 -2.17086555,11.60294 1.3822221,16.0852 3.4657762,4.6175 9.7730482,6.82316 15.3610542,5.37165 5.426951,-1.2609 9.880175,-5.834 11.016781,-11.28503 0.843575,-3.57493 0.206751,-7.37302 -1.553963,-10.52911 -2.133904,-3.87786 -6.164239,-6.709909 -10.587746,-7.40467 -1.129899,-0.198404 -2.283774,-0.239148 -3.427879,-0.175413 z"
       id="path22"
       inkscape:label="Inner4" /><path
       style="fill:#4e4ce0;fill-opacity:1;stroke:none;stroke-width:1;stroke-linecap:square;stroke-linejoin:round;stroke-dasharray:none;stroke-dashoffset:0;stroke-opacity:1;paint-order:fill markers stroke"
       d="M 15.001953,65.091797 C 9.9368977,65.435167 5.1362353,68.497613 2.8114837,73.029166 0.07374535,78.052351 0.64061815,84.63211 4.1937058,89.114371 7.659482,93.731871 13.966754,95.937534 19.55476,94.486017 24.981711,93.225124 29.434935,88.652016 30.571541,83.200988 31.415116,79.626063 30.778292,75.827969 29.017578,72.671875 26.883674,68.794016 22.853339,65.961971 18.429832,65.26721 17.299933,65.068806 16.146058,65.028062 15.001953,65.091797 Z"
       id="path21"
       inkscape:label="Inner3" /><g
       id="g38"
       inkscape:label="Ablaze"><path
         style="fill:#f8a334;fill-opacity:1;stroke:none;stroke-width:1;stroke-linecap:square;stroke-linejoin:round;stroke-dasharray:none;stroke-dashoffset:0;stroke-opacity:1;paint-order:fill markers stroke"
         d="M 15.001953,33.091797 C 9.9368977,33.435167 5.1362353,36.497613 2.8114837,41.029166 0.07374535,46.052351 0.64061815,52.63211 4.1937058,57.114371 7.659482,61.731871 13.966754,63.937534 19.55476,62.486017 24.981711,61.225124 29.434935,56.652016 30.571541,51.200988 31.415116,47.626063 30.778292,43.827969 29.017578,40.671875 26.883674,36.794016 22.853339,33.961971 18.429832,33.26721 17.299933,33.068806 16.146058,33.028062 15.001953,33.091797 Z"
         id="path20"
         inkscape:label="Inner2" /></g><g
       id="g30"
       inkscape:label="PureDamage"><path
         style="fill:#887676;fill-opacity:1;stroke:none;stroke-width:1;stroke-linecap:square;stroke-linejoin:round;stroke-dasharray:none;stroke-dashoffset:0;stroke-opacity:1;paint-order:fill markers stroke"
         d="M 15.001953,1.0917969 C 9.9368977,1.4351668 5.1362353,4.4976126 2.8114837,9.0291662 0.07374535,14.052351 0.64061815,20.63211 4.1937058,25.114371 7.659482,29.731871 13.966754,31.937534 19.55476,30.486017 24.981711,29.225124 29.434935,24.652016 30.571541,19.200988 31.415116,15.626063 30.778292,11.827969 29.017578,8.671875 26.883674,4.7940161 22.853339,1.9619713 18.429832,1.2672098 17.299933,1.0688059 16.146058,1.028062 15.001953,1.0917969 Z"
         id="circle1"
         inkscape:label="Inner1" /></g><g
       id="g3"
       inkscape:label="Defense"><path
         style="fill:#717f7a;fill-opacity:1;stroke:none;stroke-width:1;stroke-linecap:square;stroke-linejoin:round;stroke-dasharray:none;stroke-dashoffset:0;stroke-opacity:1;paint-order:fill markers stroke"
         d="m 15.001953,257.0918 c -5.0650553,0.34337 -9.8657177,3.40581 -12.1904693,7.93737 -2.73773835,5.02318 -2.17086555,11.60294 1.3822221,16.0852 3.4657762,4.6175 9.7730482,6.82316 15.3610542,5.37165 5.426951,-1.2609 9.880175,-5.834 11.016781,-11.28503 0.843575,-3.57493 0.206751,-7.37302 -1.553963,-10.52912 -2.133904,-3.87785 -6.164239,-6.7099 -10.587746,-7.40466 -1.129899,-0.1984 -2.283774,-0.23915 -3.427879,-0.17541 z"
         id="path27"
         inkscape:label="Inner9" /></g><path
       id="path4"
       style="fill:none;fill-rule:evenodd;stroke:#8994ca;stroke-width:2.165"
       transform="translate(-0.19716123,-0.863788)"
       d="m 18.41478,82.935715 c -0.967704,1.189385 -2.790605,0.971918 -3.801054,-0.03179 -1.482874,-1.472987 -1.138183,-3.920941 0.336412,-5.260551 1.965403,-1.78549 5.057252,-1.308135 6.720049,0.641029 2.09246,2.452824 1.480036,6.196451 -0.945646,8.179547 -2.937826,2.401795 -7.337284,1.653072 -9.639045,-1.250264 -2.712545,-3.42148 -1.8268239,-8.479137 1.554881,-11.098542 3.904312,-3.024207 9.621672,-2.001053 12.55804,1.859498 3.336488,4.386602 2.175614,10.764685 -2.164115,14.017538 -4.86852,3.649209 -11.908046,2.350417 -15.477036,-2.468732 -3.962255,-5.350169 -2.5254001,-13.05167 2.77335,-16.936534"
       sodipodi:nodetypes="csssssssssc" /><path
       id="path5"
       style="fill:#cb0000;stroke:#4d0002;stroke-width:0.565;stroke-linecap:square;stroke-linejoin:round;paint-order:fill markers stroke"
       d="m 21.293224,115.17117 c -4e-6,2.91568 -2.36363,5.2793 -5.279308,5.2793 -2.915678,0 -5.279304,-2.36362 -5.279308,-5.2793 -10e-7,-2.91568 4.70142,-12.13925 5.279307,-12.13777 0.564688,0.001 5.27931,9.22209 5.279309,12.13777 z"
       sodipodi:nodetypes="sssss" /><path
       id="path6"
       style="fill:#c4c67d;fill-opacity:1;stroke:#6c6c6c;stroke-width:0.852075;stroke-linecap:square;stroke-linejoin:round;stroke-dasharray:none;stroke-opacity:1;paint-order:fill markers stroke"
       d="m 16.01401,134.61449 c -4.397131,1e-5 -7.9617067,2.95425 -7.9617126,7.35138 0.00787,2.52728 1.2151613,4.90072 3.2531086,6.39536 v 3.40151 h 9.417208 v -3.40211 c 2.037777,-1.49452 3.245046,-3.86769 3.253107,-6.39476 -5e-6,-4.39713 -3.564581,-7.35137 -7.961711,-7.35138 z"
       sodipodi:nodetypes="sccccccs" /><path
       id="path7"
       style="fill:#c4c67d;stroke:#6c6c6c;stroke-width:0.899286;stroke-linecap:square;stroke-linejoin:round;paint-order:fill markers stroke"
       d="m 15.282039,142.10993 c 2e-6,0.76475 -0.619949,1.3847 -1.384697,1.3847 -0.764748,0 -1.384698,-0.61995 -1.384696,-1.3847 4e-6,-0.76474 0.619952,-1.38469 1.384696,-1.38469 0.764744,0 1.384693,0.61995 1.384697,1.38469 z m 4.233522,0 c -2e-6,0.76475 0.619949,1.3847 1.384697,1.3847 0.764748,0 1.384698,-0.61995 1.384696,-1.3847 -4e-6,-0.76474 -0.619952,-1.38469 -1.384696,-1.38469 -0.764744,0 -1.384693,0.61995 -1.384697,1.38469 z"
       inkscape:path-effect="#path-effect12"
       inkscape:original-d="m 15.282039,142.10993 c 2e-6,0.76475 -0.619949,1.3847 -1.384697,1.3847 -0.764748,0 -1.384698,-0.61995 -1.384696,-1.3847 4e-6,-0.76474 0.619952,-1.38469 1.384696,-1.38469 0.764744,0 1.384693,0.61995 1.384697,1.38469 z"
       transform="matrix(1.1533803,0,0,1.1533803,-4.0534235,-21.89942)"
       sodipodi:nodetypes="sssss" /><path
       style="fill:#c4c67d;fill-opacity:1;stroke:#6c6c6c;stroke-width:0.564999;stroke-linecap:square;stroke-linejoin:round;stroke-dasharray:none;stroke-opacity:1;paint-order:fill markers stroke"
       id="path13"
       width="0.35898876"
       height="2.4317908"
       x="13.164206"
       y="149.4933"
       inkscape:path-effect="#path-effect15"
       sodipodi:type="rect"
       d="m 13.164206,149.4933 h 0.358988 v 2.43179 h -0.358988 z m 5.699418,0 h -0.358988 v 2.43179 h 0.358988 z"
       transform="matrix(1.1533803,0,0,0.72864967,-2.456233,41.250404)" /><path
       style="fill:#c4c67d;fill-opacity:1;stroke:#6c6c6c;stroke-width:0.564999;stroke-linecap:square;stroke-linejoin:round;stroke-dasharray:none;stroke-opacity:1;paint-order:fill markers stroke"
       id="path15"
       width="0.4587962"
       height="2.4317932"
       x="13.284163"
       y="149.4933"
       inkscape:path-effect="#path-effect17"
       sodipodi:type="rect"
       d="m 13.284163,149.4933 h 0.458797 v 2.43179 h -0.458797 z m 2.284504,0 H 15.10987 v 2.43179 h 0.458797 z"
       transform="matrix(1.1533803,0,0,0.72864967,-0.62524185,41.250404)" /><path
       id="rect17"
       style="fill:#08e500;fill-opacity:1;stroke:#007301;stroke-width:0.564999;stroke-linecap:square;stroke-linejoin:round;stroke-dasharray:none;stroke-opacity:1;paint-order:fill markers stroke"
       d="M 13.499951 229.80768 L 13.499951 237.48215 L 5.8254842 237.48215 L 5.8254842 242.51026 L 13.499951 242.51026 L 13.499951 250.18421 L 18.528068 250.18421 L 18.528068 242.51026 L 26.202018 242.51026 L 26.202018 237.48215 L 18.528068 237.48215 L 18.528068 229.80768 L 13.499951 229.80768 z " /><path
       id="rect18"
       style="fill:#36100e;fill-opacity:1;stroke:#ffffff;stroke-width:0.564999;stroke-linecap:square;stroke-linejoin:round;stroke-dasharray:none;stroke-opacity:1;paint-order:fill markers stroke"
       d="M 12.06438 198.69382 L 12.06438 207.99609 L 8.5002563 207.99609 L 16.01401 220.2434 L 23.527763 207.99609 L 19.963639 207.99609 L 19.963639 198.69382 L 12.06438 198.69382 z " /><path
       id="path19"
       style="fill:#2998c4;stroke:#08ffe0;stroke-width:0.564999;stroke-linecap:square;stroke-linejoin:round;paint-order:fill markers stroke"
       d="m 25.652555,175.99617 c 0,5.32327 -14.957855,9.84644 -9.638639,9.63864 10.803219,-0.42203 7.893397,-19.64684 0,-19.27728 -5.317449,0.24896 9.638639,4.31537 9.638639,9.63864 z m -19.27728,0 c 0,5.32327 14.957855,9.84644 9.638639,9.63864 -10.803219,-0.42203 -7.893397,-19.64684 0,-19.27728 5.317449,0.24896 -9.638639,4.31537 -9.638639,9.63864 z"
       sodipodi:nodetypes="ssss"
       inkscape:original-d="m 25.652555,175.99617 c 0,5.32327 -14.957855,9.84644 -9.638639,9.63864 10.803219,-0.42203 7.893397,-19.64684 0,-19.27728 -5.317449,0.24896 9.638639,4.31537 9.638639,9.63864 z"
       inkscape:path-effect="#path-effect19" /><path
       id="path40"
       style="fill:#444444;fill-opacity:1;stroke-width:0.564999;stroke-linecap:square;stroke-linejoin:round;paint-order:fill markers stroke"
       d="m 16.320449,261.51788 -9.1591292,5.82084 v 14.96498 l 1.0583334,0.52916 0.7353544,-1.66915 7.3654414,-4.68085 v -12.03389 l 1.058334,-2.40192 z" /><path
       id="path41"
       style="fill:#5a5a5a;stroke-width:0.564999;stroke-linecap:square;stroke-linejoin:round;paint-order:fill markers stroke"
       d="m 8.2198722,267.86793 9.1588148,-5.82084 v 14.96493 l -9.1588148,5.82084 z"
       sodipodi:nodetypes="ccccc" /><path
       id="path42"
       style="fill:#6f6f6f;fill-opacity:1;stroke-width:0.564999;stroke-linecap:square;stroke-linejoin:round;paint-order:fill markers stroke"
       d="m 16.320449,261.51788 -9.1591292,5.82084 1.0585524,0.52921 9.1589108,-5.82088 z"
       sodipodi:nodetypes="ccccc" /><path
       id="path31"
       style="fill:#2998c4;stroke:#08ffe0;stroke-width:0.564999;stroke-linecap:square;stroke-linejoin:round;paint-order:fill markers stroke"
       d="M 15.647624 166.35419 C 13.165968 166.42906 11.212806 168.46024 10.073287 171.17715 C 12.160031 169.73229 14.609631 168.54058 16.013493 167.70087 C 14.702417 166.91663 14.304281 166.43734 16.01401 166.35729 C 15.890675 166.35151 15.768491 166.35054 15.647624 166.35419 z M 16.01401 166.35729 C 17.723892 166.43734 17.324854 166.9165 16.013493 167.70087 C 17.417427 168.54067 19.867686 169.7325 21.954732 171.17767 C 20.759744 168.32821 18.669782 166.23295 16.01401 166.35729 z M 21.954732 171.17767 C 23.143935 174.01333 23.446379 177.59607 22.531958 180.48717 C 24.287714 179.13461 25.652698 177.60223 25.652698 175.99598 C 25.652698 174.21714 23.980303 172.58026 21.954732 171.17767 z M 22.531958 180.48717 C 20.340293 182.17554 17.550316 183.57838 16.01401 184.49313 C 16.849069 184.99035 17.318482 185.34656 17.101282 185.51943 C 19.992478 185.0212 21.730282 183.02181 22.531958 180.48717 z M 17.101282 185.51943 C 16.754833 185.57913 16.394012 185.61982 16.01401 185.63466 C 16.635667 185.65895 16.977294 185.6181 17.101282 185.51943 z M 16.01401 185.63466 C 15.634192 185.61983 15.273034 185.57908 14.926737 185.51943 C 15.050866 185.61801 15.392627 185.65894 16.01401 185.63466 z M 14.926737 185.51943 C 14.709141 185.34661 15.178739 184.99047 16.01401 184.49313 C 14.477618 183.57833 11.687263 182.17515 9.4955444 180.48666 C 10.2972 183.02167 12.035058 185.02131 14.926737 185.51943 z M 9.4955444 180.48666 C 8.5812595 177.59549 8.8839959 174.01272 10.073287 171.17715 C 8.0474485 172.57984 6.3753215 174.21696 6.3753215 175.99598 C 6.3753215 177.60212 7.7399643 179.13416 9.4955444 180.48666 z " /><path
       id="path38"
       style="fill:#444444;fill-opacity:1;stroke-width:0.564999;stroke-linecap:square;stroke-linejoin:round;paint-order:fill markers stroke"
       d="m 26.374619,262.04705 -9.159131,5.82084 v 14.96498 l 1.058334,0.52916 0.735355,-1.66915 7.365442,-4.68085 v -12.03389 l 1.058334,-2.40192 z" /><path
       id="rect32"
       style="fill:#5a5a5a;stroke-width:0.564999;stroke-linecap:square;stroke-linejoin:round;paint-order:fill markers stroke"
       d="m 18.274041,268.3971 9.158816,-5.82084 v 14.96493 l -9.158816,5.82084 z"
       sodipodi:nodetypes="ccccc" /><path
       id="path39"
       style="fill:#6f6f6f;fill-opacity:1;stroke-width:0.564999;stroke-linecap:square;stroke-linejoin:round;paint-order:fill markers stroke"
       d="m 26.374619,262.04705 -9.159131,5.82084 1.058553,0.52921 9.158912,-5.82088 z"
       sodipodi:nodetypes="ccccc" /><path
       id="rect48"
       style="fill:#58f77a;fill-opacity:0.50404847;stroke:#8eb992;stroke-width:0.564999;stroke-linecap:square;stroke-linejoin:round;stroke-dasharray:none;stroke-opacity:1;paint-order:fill markers stroke"
       d="m 13.300127,262.45644 v 6.82542 H 6.4741869 v 5.4281 h 6.8259401 v 6.82594 h 5.428093 v -6.82594 h 6.825423 v -5.4281 H 18.72822 v -6.82542 z" /><path
       style="fill:url(#linearGradient377);fill-opacity:1;stroke:#b70b0b;stroke-width:0.258139;stroke-linecap:square;stroke-linejoin:round;stroke-dasharray:none;stroke-opacity:1;paint-order:fill markers stroke"
       id="path375"
       sodipodi:type="arc"
       sodipodi:cx="12.735691"
       sodipodi:cy="18.482597"
       sodipodi:rx="9.3395119"
       sodipodi:ry="7.0823708"
       sodipodi:start="2.4699408"
       sodipodi:end="0.70150628"
       sodipodi:arc-type="arc"
       d="m 5.4247696,22.889814 a 9.3395119,7.0823708 0 0 1 1.0304475,-9.649098 9.3395119,7.0823708 0 0 1 12.7644859,0.1445 9.3395119,7.0823708 0 0 1 0.65017,9.668124"
       sodipodi:open="true"
       transform="rotate(-21.696358)" /><path
       id="rect372"
       style="fill:#e54500;stroke:#980500;stroke-width:0.3;stroke-linecap:square;stroke-linejoin:round;paint-order:fill markers stroke;stroke-opacity:1;fill-opacity:1;stroke-dasharray:none"
       d="m 18.367019,36.696819 c -0.897205,1.540483 -1.505124,3.143923 0.105807,6.2956 1.078779,2.110557 2.791952,3.882672 2.911943,6.317685 1.137984,-1.276008 1.083145,-3.240063 1.281637,-5.05799 2.306996,4.072756 1.490578,8.294022 -0.614487,11.754138 -1.338077,2.19941 -7.277708,4.92345 -11.659025,-0.03501 -4.3813173,-4.958464 -2.6546223,-8.998129 -0.5632126,-12.429847 0.091046,1.288842 0.4920516,2.165014 1.1066266,2.756846 0.31042,-4.574272 2.403056,-8.018414 7.430711,-9.601418 z"
       sodipodi:nodetypes="csccszccc" /><path
       id="rect371"
       style="fill:#f9a803;stroke:#f97003;stroke-width:0.3;stroke-linecap:square;stroke-linejoin:round;stroke-dasharray:none;paint-order:fill markers stroke;stroke-opacity:1;fill-opacity:1"
       d="m 13.803848,53.130975 c -0.630401,-2.91999 -0.83237,-5.714985 1.683347,-7.032936 0.241461,1.856399 -0.291246,2.154806 2.877567,5.696096 0.456202,0.509826 0.703347,2.496697 0.604196,3.344462 0.529592,-0.797287 0.895199,-1.715362 1.125647,-2.732995 0.613722,2.003892 0.581866,3.387515 -0.893116,4.720896 -1.371498,1.239831 -3.47751,2.632913 -6.190314,-0.09191 -1.46281,-1.469291 -2.226196,-3.319798 -0.617173,-5.915585 0.130128,0.918765 0.876891,1.387317 1.409846,2.011972 z"
       sodipodi:nodetypes="ccsccsscc" /><path
       id="rect373"
       style="fill:#4e4e4e;fill-opacity:1;stroke:#101010;stroke-width:0.3;stroke-linecap:square;stroke-linejoin:round;stroke-opacity:1;paint-order:fill markers stroke"
       d="m 18.688226,17.54288 3.860098,6.685886 c 0,0 0.875985,1.256905 -0.317814,1.944197 -1.554615,0.895017 -2.024118,-0.592082 -2.024118,-0.592082 l -3.860098,-6.685886 z"
       sodipodi:nodetypes="ccsccc" /><rect
       style="fill:url(#linearGradient375);fill-opacity:1;stroke:#101010;stroke-width:0.3;stroke-linecap:square;stroke-linejoin:round;stroke-dasharray:none;stroke-opacity:1;paint-order:fill markers stroke"
       id="rect374"
       width="7.6119728"
       height="14.239626"
       x="0.41708761"
       y="10.297068"
       transform="rotate(-30)"
       ry="0.35763019" /><circle
       style="fill:#37b4ff;fill-opacity:1;stroke:#07ffde;stroke-width:0.674183;stroke-linecap:square;stroke-linejoin:round;stroke-dasharray:none;stroke-opacity:1;paint-order:fill markers stroke"
       id="path377"
       cx="16.013916"
       cy="175.99617"
       r="4.1043305" /><rect
       style="fill:#80745c;fill-opacity:1;stroke:#6c6c6c;stroke-width:0.235;stroke-linecap:square;stroke-linejoin:round;stroke-dasharray:none;stroke-opacity:1;paint-order:fill markers stroke"
       id="path378"
       width="0.52916652"
       height="2.0629022"
       x="15.749331"
       y="144.05276"
       sodipodi:type="rect" /></g></svg>
